<svg xmlns="http://www.w3.org/2000/svg" xmlns:xlink="http://www.w3.org/1999/xlink" width="52" height="44"><defs><path id="b" d="M434.99 1271.93v33.17c0 .49-.4.9-.9.9H385.9a.9.9 0 0 1-.9-.9v-33.17c0-.08.07-.12.08-.2.02-.06-.01-.13.02-.2l3.01-6.04a.9.9 0 0 1 .8-.5H410c.33 0 .65.2.8.5l2.74 5.54h20.55c.5 0 .9.4.9.9zm-47.64-.9h24.19l-2.1-4.24h-19.98zm45.84 1.8h-20.04l-.15.03-.12-.03H386.8v31.37h46.4z"/><linearGradient id="a" x1="389" x2="430.99" y1="1265" y2="1305.99" gradientUnits="userSpaceOnUse"><stop offset="0" stop-color="#802775"/><stop offset="1" stop-color="#dc071d"/></linearGradient></defs><use fill="url(#a)" xlink:href="#b" transform="translate(-384 -1263)"/></svg>