<svg xmlns="http://www.w3.org/2000/svg" xmlns:xlink="http://www.w3.org/1999/xlink" width="53" height="43"><defs><path id="b" d="M834.99 1576.32a9.7 9.7 0 0 1-6.63 9.1c-1.13.38-2.2.57-3.27.57h-3.01c-.5 0-.9-.39-.9-.87v-17.6c0-.49.4-.88.9-.88h2.08v-5.05c0-7.64-6.36-13.85-14.17-13.85-7.8 0-14.16 6.21-14.16 13.85v5.05h2.08c.5 0 .9.4.9.88v17.6c0 .48-.4.87-.9.87h-3.01c-1.1 0-2.18-.2-3.32-.6a9.7 9.7 0 0 1-6.58-9.07 9.7 9.7 0 0 1 6.58-9.09 10 10 0 0 1 2.45-.51v-5.13c0-8.6 7.16-15.6 15.96-15.6s15.96 7 15.96 15.6v5.13c.78.07 1.58.21 2.41.5a9.69 9.69 0 0 1 6.63 9.1zm-44 6.9v-13.8a7.89 7.89 0 0 0-4.2 6.9 7.88 7.88 0 0 0 4.2 6.9zm6.02-14.82h-2.11c-.7 0-1.4.1-2.12.3v15.23c.72.21 1.42.31 2.12.31h2.1zm28.08 15.84c.68 0 1.36-.1 2.08-.3v-15.25c-.72-.2-1.4-.3-2.08-.3h-2.11v15.85zm8.1-7.92c0-2.91-1.65-5.56-4.23-6.92v13.84a7.89 7.89 0 0 0 4.24-6.92z"/><linearGradient id="a" x1="790" x2="829.99" y1="1545.99" y2="1585.99" gradientUnits="userSpaceOnUse"><stop offset="0" stop-color="#802775"/><stop offset="1" stop-color="#dc071d"/></linearGradient></defs><use fill="url(#a)" xlink:href="#b" transform="translate(-783 -1544)"/></svg>