<svg xmlns="http://www.w3.org/2000/svg" xmlns:xlink="http://www.w3.org/1999/xlink" width="53" height="41"><defs><path id="b" d="M1235 1567.04c0 .04-.05.06-.05.1v11.91c0 .5-.4.9-.9.9h-3a.9.9 0 0 1-.9-.9c0-.5.4-.9.9-.9h2.1v-10.21h-8.1a.9.9 0 0 1-.89-.9v-11.19h-7.2v16.5c0 .49-.4.9-.9.9a.9.9 0 0 1-.9-.9v-22.57h-28.37v28.37h2.14a.9.9 0 0 1 0 1.8h-3.03a.9.9 0 0 1-.9-.9v-30.16c0-.5.4-.9.9-.9h30.16c.5 0 .9.4.9.9v5.17h17.09c.5 0 .9.4.9.9v11.98c0 .04.04.06.04.1zm-1.84-11.19h-7.2v10.3h7.2zm-4.2 23.2a6.93 6.93 0 1 1-13.86 0 6.93 6.93 0 0 1 13.86 0zm-1.8 0a5.13 5.13 0 1 0-10.26 0 5.13 5.13 0 0 0 10.27 0zm-22.3 0zm-1.79 0a5.14 5.14 0 1 0-10.27 0 5.14 5.14 0 0 0 10.27 0zm10.85 0c0 .5-.4.9-.9.9h-6.06a.9.9 0 0 1-.9-.9c0-.5.4-.9.9-.9h6.07c.5 0 .9.4.9.9z"/><linearGradient id="a" x1="1191" x2="1228.99" y1="1547.99" y2="1585.99" gradientUnits="userSpaceOnUse"><stop offset="0" stop-color="#802775"/><stop offset="1" stop-color="#dc071d"/></linearGradient></defs><use fill="url(#a)" xlink:href="#b" transform="translate(-1183 -1546)"/></svg>