<svg xmlns="http://www.w3.org/2000/svg" xmlns:xlink="http://www.w3.org/1999/xlink" width="46" height="48"><defs><path id="b" d="M418.68 1867H401.3a.85.85 0 0 1-.86-.83v-7.3c-7.04-3.5-11.41-10.36-11.45-18a20.36 20.36 0 0 1 10.57-17.75.86.86 0 0 1 .86 0c.26.15.43.43.43.72v13.71l9.13 5.13 9.14-5.13v-13.72c0-.3.16-.57.43-.73a.88.88 0 0 1 .86 0c6.56 3.7 10.52 10.25 10.57 17.54a20.47 20.47 0 0 1-11.45 18.25v7.28c0 .46-.39.83-.86.83zm-16.51-1.67h15.65v-6.95c0-.33.19-.62.49-.76 6.7-3.13 11-9.8 10.96-16.97a18.44 18.44 0 0 0-8.42-15.31v12.7c0 .29-.17.56-.43.72l-10 5.6a.87.87 0 0 1-.86 0l-10-5.6a.84.84 0 0 1-.42-.73v-12.67a18.6 18.6 0 0 0-8.42 15.5c.03 7.17 4.24 13.59 10.96 16.75.3.14.49.43.49.75z"/><linearGradient id="a" x1="389" x2="431" y1="1824" y2="1865.99" gradientUnits="userSpaceOnUse"><stop offset="0" stop-color="#802775"/><stop offset="1" stop-color="#dc071d"/></linearGradient></defs><use fill="url(#a)" xlink:href="#b" transform="translate(-387 -1821)"/></svg>