<svg xmlns="http://www.w3.org/2000/svg" xmlns:xlink="http://www.w3.org/1999/xlink" width="52" height="40"><defs><path id="b" d="M1224.27 1856.19a8.3 8.3 0 0 1-6.81 6.25v3.45c0 .61-.49 1.1-1.09 1.1h-22.14c-.6 0-1.09-.49-1.09-1.1v-3.46a8.46 8.46 0 0 1-7.15-8.4v-23.91c0-.61.48-1.11 1.08-1.11h36.46c.6 0 1.08.5 1.08 1.1v4.88c5.27.56 9.4 5.06 9.4 10.58 0 5.64-4.31 10.22-9.74 10.62zm.6-14.38c-.08-.03-.17-.03-.26-.06v7.63c.09-.02.18-.02.26-.05a4.03 4.03 0 0 0 1.2-.74c.13-.11.27-.22.38-.35.2-.24.38-.52.53-.81.07-.13.16-.26.21-.4.18-.46.3-.94.3-1.46s-.12-1-.3-1.46c-.05-.14-.14-.26-.2-.4a4.57 4.57 0 0 0-.54-.8c-.11-.14-.25-.25-.37-.36a4.1 4.1 0 0 0-.75-.52c-.15-.08-.3-.16-.46-.22zm-9.59 20.74h-19.97v2.23h19.97zm7.07-7.58c.04-.3.1-.61.1-.94v-22.8h-34.29v22.8a6.26 6.26 0 0 0 6.18 6.31h21.92a6.19 6.19 0 0 0 6.09-5.37zm9.48-9.4c0-4.3-3.14-7.86-7.22-8.4v2.24l.06.02c.63.12 1.22.36 1.77.67l.27.15c.51.32.98.73 1.38 1.18l.2.26c.38.49.7 1.03.94 1.62l.07.24c.21.64.35 1.3.35 2.02 0 .71-.14 1.39-.35 2.02l-.07.24c-.24.6-.56 1.14-.94 1.63l-.2.24c-.4.47-.87.87-1.38 1.19l-.27.15a6 6 0 0 1-1.77.67l-.06.02v2.25a8.44 8.44 0 0 0 7.22-8.41z"/><linearGradient id="a" x1="1190.99" x2="1229" y1="1829.01" y2="1866.99" gradientUnits="userSpaceOnUse"><stop offset="0" stop-color="#802775"/><stop offset="1" stop-color="#dc071d"/></linearGradient></defs><use fill="url(#a)" xlink:href="#b" transform="translate(-1184 -1828)"/></svg>