<svg xmlns="http://www.w3.org/2000/svg" xmlns:xlink="http://www.w3.org/1999/xlink" width="53" height="45"><defs><path id="b" d="M434.97 1559a.9.9 0 0 1-.2.54l-24.1 27.16c-.02.02-.06.01-.08.04l-.2.15c-.01 0-.02.04-.04.04a.98.98 0 0 1-.36.08.97.97 0 0 1-.36-.08c-.03 0-.03-.03-.05-.04-.08-.04-.13-.1-.2-.15-.01-.03-.05-.02-.07-.04l-24.1-27.16a.9.9 0 0 1-.2-.54l-.02-.05c0-.04.04-.06.04-.1.01-.08 0-.17.03-.25l5.14-12.07a.9.9 0 0 1 .84-.54h37.9c.37 0 .7.21.84.54l5.14 12.07c.04.08.02.17.03.25 0 .04.04.06.04.1l-.02.05zm-31.12-11.22l-4.44 10.27h21.16l-4.43-10.27zm-4.42 12.07l10.56 24.01 10.56-24.01zm-11.54 0l18.95 21.36-9.39-21.36zm25.25 21.35l18.94-21.35h-9.55zm15.2-33.42H418.1l4.43 10.27h10.2zm-41.08 10.27h10.19l4.44-10.27h-10.26z"/><linearGradient id="a" x1="388.99" x2="430.99" y1="1545.99" y2="1587.01" gradientUnits="userSpaceOnUse"><stop offset="0" stop-color="#802775"/><stop offset="1" stop-color="#dc071d"/></linearGradient></defs><use fill="url(#a)" xlink:href="#b" transform="translate(-383 -1544)"/></svg>