<svg xmlns="http://www.w3.org/2000/svg" xmlns:xlink="http://www.w3.org/1999/xlink" width="53" height="50"><defs><path id="b" d="M1234.65 1282.17l-21.8 19.85-2.58 2.35-.14.1c-.1.06-.2.1-.3.13l-15.77 4.47-6.7 1.9-.3.03a1.04 1.04 0 0 1-.97-1.4l2.5-6.5 5.87-15.18.04-.1c.07-.17.19-.31.32-.42l2.52-2.3 21.81-19.85c.32-.29.77-.35 1.15-.17a28.9 28.9 0 0 1 14.62 15.95c.15.4.05.85-.27 1.14zm-45.86 26.23l3.59-1.02-.06-.14c-.24-.47-.51-.9-.86-1.28a5.62 5.62 0 0 0-1.2-.97l-.13-.06zm21.88-7.21l-11.37-12.41-1.32-1.44-1.63 1.48-5.46 14.12c.09.05.14.12.23.17.7.4 1.35.87 1.88 1.45.53.58.94 1.26 1.27 2 .05.08.12.15.16.24l14.61-4.13zm22.05-20.08a26.68 26.68 0 0 0-12.7-13.85l-20.5 18.67 3.3 3.6 17.33-15.78a1.05 1.05 0 0 1 1.47.07 1.04 1.04 0 0 1-.07 1.47l-17.33 15.78 2.6 2.84.68.74 17.33-15.78a1.05 1.05 0 0 1 1.48.07 1.05 1.05 0 0 1-.06 1.47l-17.35 15.77 3.3 3.6z"/><linearGradient id="a" x1="1187.02" x2="1233.99" y1="1264.98" y2="1311" gradientUnits="userSpaceOnUse"><stop offset="0" stop-color="#802775"/><stop offset="1" stop-color="#dc071d"/></linearGradient></defs><use fill="url(#a)" xlink:href="#b" transform="translate(-1184 -1263)"/></svg>