<svg xmlns="http://www.w3.org/2000/svg" xmlns:xlink="http://www.w3.org/1999/xlink" width="53" height="49"><defs><path id="b" d="M834.99 1848.05v18.04c0 .5-.4.9-.9.9H788.9a3.93 3.93 0 0 1-3.9-3.94v-33.01a3.9 3.9 0 0 1 3.9-3.95h9.45a.9.9 0 1 1 0 1.81h-9.45a2.12 2.12 0 0 0-2.11 2.14c0 .23.06.44.13.65a2.08 2.08 0 0 0 1.98 1.48h5.87l11.79-11.9a.89.89 0 0 1 1.27 0l8.31 8.4 5.3-5.35a.9.9 0 0 1 1.27 0l8.77 8.86h2.6c.5 0 .9.4.9.9zm-1.8.92H817v4.27h16.2zm-15.77-19.02l2.19 2.23h9.34l-6.87-6.95zm-20.1 2.23h19.75l-9.88-9.99zm35.87 33v-10.13h-17.1a.9.9 0 0 1-.9-.9v-6.09c0-.5.4-.9.9-.9h17.1v-13.18h-44.3c-.47 0-.9-.1-1.32-.27-.13-.04-.24-.1-.35-.15-.14-.07-.3-.11-.43-.2v29.69c0 1.18.95 2.13 2.11 2.13zM827.2 1827c0-.5.4-.9.9-.9h6c.49 0 .89.4.89.9s-.4.9-.9.9h-5.99a.9.9 0 0 1-.9-.9z"/><linearGradient id="a" x1="787" x2="832.99" y1="1820.01" y2="1866.99" gradientUnits="userSpaceOnUse"><stop offset="0" stop-color="#802775"/><stop offset="1" stop-color="#dc071d"/></linearGradient></defs><use fill="url(#a)" xlink:href="#b" transform="translate(-783 -1819)"/></svg>